TITLE ""
FILE "TOEIC LR Kinnojyukugo_09.mp3" MP3
  TRACK 01 AUDIO
    TITLE "TOEIC LR Kinnojyukugo_09_01"
    INDEX 01 00:00:00
  TRACK 02 AUDIO
    TITLE "TOEIC LR Kinnojyukugo_09_02"
    INDEX 01 00:00:12
  TRACK 03 AUDIO
    TITLE "TOEIC LR Kinnojyukugo_09_03"
    INDEX 01 00:01:35
  TRACK 04 AUDIO
    TITLE "TOEIC LR Kinnojyukugo_09_04"
    INDEX 01 00:01:72
  TRACK 05 AUDIO
    TITLE "TOEIC LR Kinnojyukugo_09_05"
    INDEX 01 00:04:06
  TRACK 06 AUDIO
    TITLE "TOEIC LR Kinnojyukugo_09_06"
    INDEX 01 00:05:06
  TRACK 07 AUDIO
    TITLE "TOEIC LR Kinnojyukugo_09_07"
    INDEX 01 00:06:19
  TRACK 08 AUDIO
    TITLE "TOEIC LR Kinnojyukugo_09_08"
    INDEX 01 00:06:58
  TRACK 09 AUDIO
    TITLE "TOEIC LR Kinnojyukugo_09_09"
    INDEX 01 00:09:17
  TRACK 10 AUDIO
    TITLE "TOEIC LR Kinnojyukugo_09_10"
    INDEX 01 00:10:20
  TRACK 11 AUDIO
    TITLE "TOEIC LR Kinnojyukugo_09_11"
    INDEX 01 00:11:41
  TRACK 12 AUDIO
    TITLE "TOEIC LR Kinnojyukugo_09_12"
    INDEX 01 00:12:06
  TRACK 13 AUDIO
    TITLE "TOEIC LR Kinnojyukugo_09_13"
    INDEX 01 00:14:32
  TRACK 14 AUDIO
    TITLE "TOEIC LR Kinnojyukugo_09_14"
    INDEX 01 00:15:33
  TRACK 15 AUDIO
    TITLE "TOEIC LR Kinnojyukugo_09_15"
    INDEX 01 00:16:29
  TRACK 16 AUDIO
    TITLE "TOEIC LR Kinnojyukugo_09_16"
    INDEX 01 00:16:68
  TRACK 17 AUDIO
    TITLE "TOEIC LR Kinnojyukugo_09_17"
    INDEX 01 00:19:06
  TRACK 18 AUDIO
    TITLE "TOEIC LR Kinnojyukugo_09_18"
    INDEX 01 00:20:05
  TRACK 19 AUDIO
    TITLE "TOEIC LR Kinnojyukugo_09_19"
    INDEX 01 00:21:01
  TRACK 20 AUDIO
    TITLE "TOEIC LR Kinnojyukugo_09_20"
    INDEX 01 00:21:40
  TRACK 21 AUDIO
    TITLE "TOEIC LR Kinnojyukugo_09_21"
    INDEX 01 00:23:68
  TRACK 22 AUDIO
    TITLE "TOEIC LR Kinnojyukugo_09_22"
    INDEX 01 00:24:72
  TRACK 23 AUDIO
    TITLE "TOEIC LR Kinnojyukugo_09_23"
    INDEX 01 00:26:08
  TRACK 24 AUDIO
    TITLE "TOEIC LR Kinnojyukugo_09_24"
    INDEX 01 00:26:43
  TRACK 25 AUDIO
    TITLE "TOEIC LR Kinnojyukugo_09_25"
    INDEX 01 00:29:73
  TRACK 26 AUDIO
    TITLE "TOEIC LR Kinnojyukugo_09_26"
    INDEX 01 00:31:01
  TRACK 27 AUDIO
    TITLE "TOEIC LR Kinnojyukugo_09_27"
    INDEX 01 00:32:26
  TRACK 28 AUDIO
    TITLE "TOEIC LR Kinnojyukugo_09_28"
    INDEX 01 00:32:65
  TRACK 29 AUDIO
    TITLE "TOEIC LR Kinnojyukugo_09_29"
    INDEX 01 00:35:52
  TRACK 30 AUDIO
    TITLE "TOEIC LR Kinnojyukugo_09_30"
    INDEX 01 00:36:53
  TRACK 31 AUDIO
    TITLE "TOEIC LR Kinnojyukugo_09_31"
    INDEX 01 00:37:57
  TRACK 32 AUDIO
    TITLE "TOEIC LR Kinnojyukugo_09_32"
    INDEX 01 00:38:21
  TRACK 33 AUDIO
    TITLE "TOEIC LR Kinnojyukugo_09_33"
    INDEX 01 00:40:57
  TRACK 34 AUDIO
    TITLE "TOEIC LR Kinnojyukugo_09_34"
    INDEX 01 00:41:58
  TRACK 35 AUDIO
    TITLE "TOEIC LR Kinnojyukugo_09_35"
    INDEX 01 00:42:56
  TRACK 36 AUDIO
    TITLE "TOEIC LR Kinnojyukugo_09_36"
    INDEX 01 00:43:20
  TRACK 37 AUDIO
    TITLE "TOEIC LR Kinnojyukugo_09_37"
    INDEX 01 00:45:34
  TRACK 38 AUDIO
    TITLE "TOEIC LR Kinnojyukugo_09_38"
    INDEX 01 00:46:36
  TRACK 39 AUDIO
    TITLE "TOEIC LR Kinnojyukugo_09_39"
    INDEX 01 00:47:41
  TRACK 40 AUDIO
    TITLE "TOEIC LR Kinnojyukugo_09_40"
    INDEX 01 00:48:05
  TRACK 41 AUDIO
    TITLE "TOEIC LR Kinnojyukugo_09_41"
    INDEX 01 00:50:55
  TRACK 42 AUDIO
    TITLE "TOEIC LR Kinnojyukugo_09_42"
    INDEX 01 00:51:55
  TRACK 43 AUDIO
    TITLE "TOEIC LR Kinnojyukugo_09_43"
    INDEX 01 00:52:52
  TRACK 44 AUDIO
    TITLE "TOEIC LR Kinnojyukugo_09_44"
    INDEX 01 00:53:16
  TRACK 45 AUDIO
    TITLE "TOEIC LR Kinnojyukugo_09_45"
    INDEX 01 00:56:25
